<?xml version="1.0" standalone="no"?>
<!DOCTYPE svg PUBLIC "-//W3C//DTD SVG 20010904//EN"
 "http://www.w3.org/TR/2001/REC-SVG-20010904/DTD/svg10.dtd">
<svg version="1.0" xmlns="http://www.w3.org/2000/svg"
 width="500.000000pt" height="500.000000pt" viewBox="0 0 500.000000 500.000000"
 preserveAspectRatio="xMidYMid meet">

<g transform="translate(0.000000,500.000000) scale(0.100000,-0.100000)"
fill="#000000" stroke="none">
<path d="M1596 4754 c-44 -46 -86 -84 -93 -84 -7 0 -13 -4 -13 -8 0 -4 -37
-41 -82 -81 -75 -66 -128 -116 -320 -297 -31 -30 -61 -54 -67 -54 -8 0 -11
-319 -11 -1100 0 -638 4 -1100 9 -1100 5 0 12 -11 15 -24 3 -13 24 -40 46 -60
22 -20 40 -45 40 -56 0 -24 92 -129 135 -155 35 -21 102 -63 205 -131 41 -27
80 -51 85 -54 10 -5 76 -48 218 -142 32 -21 61 -38 66 -38 4 0 16 -9 26 -20
10 -11 22 -20 27 -20 4 0 65 -38 136 -83 70 -46 151 -99 181 -118 30 -19 110
-71 179 -115 l124 -82 197 126 c108 68 221 140 251 159 30 19 136 86 235 148
99 62 207 130 240 151 121 76 231 147 257 165 15 10 29 19 32 19 9 0 73 46
116 83 30 25 48 52 60 87 10 29 35 69 59 95 l41 44 0 1107 0 1107 -44 41 c-24
23 -81 75 -126 116 -46 41 -97 89 -114 105 -17 17 -49 45 -71 64 -34 28 -237
216 -297 274 -17 16 -70 17 -840 16 l-823 -1 -79 -84z m1804 -25 c41 -38 182
-168 312 -287 l238 -217 0 -1115 c0 -1119 -1 -1140 -32 -1140 -4 0 -8 501 -8
1114 l0 1114 -302 281 -302 281 -795 0 -796 0 -302 -281 -303 -281 0 -1114 c0
-975 -2 -1114 -15 -1114 -8 0 -21 13 -30 30 -13 25 -15 162 -15 1123 l0 1094
141 129 c78 71 152 138 165 150 29 26 224 205 284 261 l45 43 820 -1 820 0 75
-70z m-88 -36 c10 -9 18 -26 17 -37 -1 -18 -2 -18 -8 4 -6 22 -13 14 -61 -73
-44 -79 -58 -97 -73 -93 -11 2 -27 -4 -39 -16 -17 -17 -19 -28 -14 -67 4 -33
2 -53 -8 -66 -13 -18 -15 -12 -27 59 -12 70 -28 100 -45 83 -4 -3 -14 -52 -23
-108 -11 -61 -20 -95 -23 -82 -3 12 -15 23 -28 25 -21 3 -23 8 -24 83 -1 64
-4 80 -16 80 -12 0 -15 -19 -15 -110 l0 -110 58 -3 c52 -3 59 -1 64 17 5 21
23 27 36 14 7 -6 -86 -187 -180 -352 -30 -51 -52 -100 -49 -108 3 -8 2 -11 -4
-8 -5 3 -37 -47 -71 -111 -34 -63 -68 -118 -76 -121 -10 -4 -11 -9 -2 -19 14
-17 -4 -44 -29 -44 -8 0 -12 -3 -9 -6 8 -8 -52 -124 -64 -124 -5 0 -10 93 -11
208 l-3 207 -110 0 -110 0 -3 -92 -3 -92 -67 -3 -67 -3 -2 -130 -2 -130 -113
-5 -113 -5 -5 -85 c-4 -67 -8 -85 -20 -85 -13 0 -15 -29 -18 -192 l-2 -193
160 0 c88 0 160 -2 160 -5 0 -3 -25 -49 -55 -104 -30 -55 -55 -102 -55 -104 0
-11 83 -37 166 -53 219 -42 495 -9 668 78 177 89 274 209 284 350 l5 68 256
-2 256 -3 0 -45 0 -45 -115 -3 -115 -3 -12 -47 c-7 -26 -15 -56 -18 -67 -5
-18 2 -22 62 -37 37 -9 83 -20 101 -23 38 -8 40 -24 11 -71 -23 -39 -20 -37
-68 -24 -20 5 -65 16 -101 25 l-65 15 -57 -57 c-32 -32 -58 -61 -58 -64 0 -4
10 -11 23 -16 49 -18 136 -75 131 -86 -3 -7 -25 -24 -49 -40 l-43 -27 -54 31
c-126 75 -116 72 -146 51 -15 -10 -53 -29 -84 -42 -32 -13 -58 -27 -58 -31 0
-15 81 -109 90 -104 4 3 6 -3 3 -14 -3 -12 -24 -23 -66 -35 l-62 -17 -20 23
c-11 13 -36 43 -55 66 l-35 42 -55 -15 c-30 -8 -103 -20 -162 -27 l-108 -12 0
-73 0 -74 -72 3 -73 3 -3 71 -3 71 -105 11 c-59 7 -110 9 -115 6 -6 -3 -24
-30 -40 -60 -17 -30 -35 -56 -39 -59 -9 -6 -127 19 -136 28 -3 3 13 34 35 69
38 60 39 63 21 72 -11 5 -22 7 -24 5 -19 -19 -165 -296 -162 -306 3 -7 2 -12
-2 -10 -4 1 -8 -2 -9 -7 -1 -5 -5 -12 -10 -15 -14 -9 -233 -401 -233 -417 0
-3 5 -2 12 2 7 4 8 3 4 -4 -4 -7 -11 -12 -16 -12 -4 0 -86 48 -182 106 -95 59
-203 125 -240 148 l-67 41 -1 1121 0 1122 73 69 c39 38 108 103 152 143 102
94 192 178 282 263 l71 67 783 0 c714 0 784 -1 801 -17z m-72 -197 c0 -3 -4
-8 -10 -11 -5 -3 -10 -1 -10 4 0 6 5 11 10 11 6 0 10 -2 10 -4z m12 -33 c-3
-16 -7 -22 -10 -15 -4 13 4 42 11 42 2 0 2 -12 -1 -27z m-72 -23 c0 -5 -4 -10
-10 -10 -5 0 -10 5 -10 10 0 6 5 10 10 10 6 0 10 -4 10 -10z m-106 -62 c4 -17
2 -28 -4 -28 -5 0 -10 14 -10 32 0 36 4 35 14 -4z m103 -60 c-3 -8 -6 -5 -6 6
-1 11 2 17 5 13 3 -3 4 -12 1 -19z m110 -50 c-3 -8 -6 -5 -6 6 -1 11 2 17 5
13 3 -3 4 -12 1 -19z m-210 -488 c10 -30 12 -32 13 -10 0 24 1 23 23 -10 19
-30 22 -48 22 -125 -1 -76 -5 -100 -29 -155 -15 -36 -28 -69 -27 -75 0 -5 11
-136 25 -290 32 -349 32 -335 4 -335 -17 0 -38 21 -77 75 l-54 74 -25 -37
c-14 -20 -35 -51 -48 -68 -13 -17 -22 -33 -19 -35 2 -3 -9 -6 -25 -7 -25 -2
-30 1 -30 20 0 26 38 333 45 364 5 20 4 20 -43 -3 -65 -32 -144 -41 -176 -19
-14 9 -32 16 -40 16 -23 0 -31 47 -18 108 12 57 75 193 98 212 10 9 27 -7 79
-79 37 -50 69 -91 72 -91 6 0 -4 16 -69 107 -32 44 -58 86 -58 92 0 6 32 -9
72 -34 39 -24 74 -42 77 -38 3 3 2 7 -4 10 -35 13 -136 86 -132 96 2 8 46 13
142 14 123 1 139 3 148 20 9 15 8 16 -4 8 -8 -6 -63 -9 -136 -7 l-123 4 59 71
c83 100 175 169 221 164 19 -1 28 -11 37 -37z m-607 -240 l0 -220 -30 0 -30 0
0 220 0 220 30 0 30 0 0 -220z m80 0 l0 -220 -30 0 -30 0 0 220 0 220 30 0 30
0 0 -220z m-210 -90 l0 -130 -40 0 -40 0 0 130 0 130 40 0 40 0 0 -130z m-252
-217 l-3 -108 -27 -3 -28 -3 0 110 0 111 30 0 31 0 -3 -107z m72 7 c0 -55 0
-103 0 -107 0 -5 -12 -8 -27 -8 l-28 0 -3 108 -3 107 31 0 30 0 0 -100z m117
-916 c-3 -3 -12 -4 -19 -1 -8 3 -5 6 6 6 11 1 17 -2 13 -5z m1013 -168 c0 -3
-4 -8 -10 -11 -5 -3 -10 -1 -10 4 0 6 5 11 10 11 6 0 10 -2 10 -4z m-63 -22
c-3 -3 -12 -4 -19 -1 -8 3 -5 6 6 6 11 1 17 -2 13 -5z m-267 -68 c0 -3 -4 -8
-10 -11 -5 -3 -10 -1 -10 4 0 6 5 11 10 11 6 0 10 -2 10 -4z m-355 -46 c3 -5
-1 -10 -10 -10 -9 0 -13 5 -10 10 3 6 8 10 10 10 2 0 7 -4 10 -10z m90 0 c3
-5 1 -10 -4 -10 -6 0 -11 5 -11 10 0 6 2 10 4 10 3 0 8 -4 11 -10z m393 -25
c-3 -3 -9 2 -12 12 -6 14 -5 15 5 6 7 -7 10 -15 7 -18z m197 15 c3 -6 -1 -7
-9 -4 -18 7 -21 14 -7 14 6 0 13 -4 16 -10z m-188 -52 c-3 -8 -6 -5 -6 6 -1
11 2 17 5 13 3 -3 4 -12 1 -19z m103 8 c0 -3 -4 -8 -10 -11 -5 -3 -10 -1 -10
4 0 6 5 11 10 11 6 0 10 -2 10 -4z m28 -31 c-3 -3 -9 2 -12 12 -6 14 -5 15 5
6 7 -7 10 -15 7 -18z m-534 -51 c3 -8 2 -12 -4 -9 -6 3 -10 10 -10 16 0 14 7
11 14 -7z m213 -26 c-3 -7 -5 -2 -5 12 0 14 2 19 5 13 2 -7 2 -19 0 -25z
m-116 -15 c-12 -20 -14 -14 -5 12 4 9 9 14 11 11 3 -2 0 -13 -6 -23z m1013
-40 c-27 -24 -69 -56 -94 -70 -25 -14 -146 -90 -270 -168 -124 -79 -380 -240
-570 -360 -190 -120 -352 -220 -361 -222 -14 -4 -382 226 -874 547 -82 54
-201 129 -263 168 -109 67 -209 148 -198 159 3 3 36 -14 73 -38 37 -24 75 -48
85 -54 47 -26 451 -279 598 -375 91 -59 258 -164 371 -233 l206 -125 269 167
c148 92 364 226 479 299 116 72 277 173 359 224 82 51 167 105 190 120 60 39
60 13 0 -39z m-877 35 c-3 -8 -6 -5 -6 6 -1 11 2 17 5 13 3 -3 4 -12 1 -19z
m-660 6 c-3 -3 -12 -4 -19 -1 -8 3 -5 6 6 6 11 1 17 -2 13 -5z m760 0 c-3 -3
-12 -4 -19 -1 -8 3 -5 6 6 6 11 1 17 -2 13 -5z m44 -12 c-7 -2 -18 1 -23 6 -8
8 -4 9 13 5 13 -4 18 -8 10 -11z m-884 -8 c-3 -3 -12 -4 -19 -1 -8 3 -5 6 6 6
11 1 17 -2 13 -5z m-12 -24 c8 -13 -5 -13 -25 0 -13 8 -13 10 2 10 9 0 20 -4
23 -10z m155 0 c0 -5 -2 -10 -4 -10 -3 0 -8 5 -11 10 -3 6 -1 10 4 10 6 0 11
-4 11 -10z m283 3 c-7 -2 -19 -2 -25 0 -7 3 -2 5 12 5 14 0 19 -2 13 -5z m54
1 c-3 -3 -12 -4 -19 -1 -8 3 -5 6 6 6 11 1 17 -2 13 -5z m90 0 c-3 -3 -12 -4
-19 -1 -8 3 -5 6 6 6 11 1 17 -2 13 -5z m868 -4 c3 -5 -1 -10 -10 -10 -9 0
-13 5 -10 10 3 6 8 10 10 10 2 0 7 -4 10 -10z m-205 -120 c0 -5 -4 -10 -10
-10 -5 0 -10 5 -10 10 0 6 5 10 10 10 6 0 10 -4 10 -10z m-210 -140 c13 -8 13
-10 -2 -10 -9 0 -20 5 -23 10 -8 13 5 13 25 0z m-1144 -171 c3 -6 15 -8 26 -6
14 4 18 2 14 -9 -3 -8 0 -14 6 -14 16 0 78 -43 78 -53 0 -9 -51 20 -114 65
-21 15 -34 28 -28 28 6 0 14 -5 18 -11z m829 -9 c13 -6 15 -9 5 -9 -8 0 -22 4
-30 9 -18 12 -2 12 25 0z m-55 -66 c0 -2 -9 -4 -20 -4 -11 0 -20 4 -20 9 0 5
9 7 20 4 11 -3 20 -7 20 -9z m-125 -34 c3 -5 1 -10 -4 -10 -6 0 -11 5 -11 10
0 6 2 10 4 10 3 0 8 -4 11 -10z m-405 -20 c0 -5 -10 -10 -22 -9 -22 0 -22 1
-3 9 11 5 21 9 23 9 1 1 2 -3 2 -9z m325 -40 c3 -5 1 -10 -4 -10 -6 0 -11 5
-11 10 0 6 2 10 4 10 3 0 8 -4 11 -10z"/>
<path d="M1546 4484 c-10 -9 -16 -33 -16 -59 0 -35 5 -48 25 -63 14 -11 25
-29 25 -41 0 -27 -20 -27 -27 -1 -6 22 -18 26 -28 9 -13 -19 16 -69 39 -69 34
0 46 19 46 72 0 41 -5 52 -30 75 -21 18 -27 30 -20 37 7 7 15 4 24 -10 14 -18
15 -18 21 -1 16 39 -31 80 -59 51z"/>
<path d="M2189 4481 c-22 -18 -24 -27 -24 -104 0 -91 11 -117 49 -117 34 0 46
20 46 77 0 46 -3 53 -20 53 -15 0 -20 -7 -20 -25 0 -14 5 -25 10 -25 16 0 12
-20 -6 -27 -9 -3 -20 0 -25 8 -10 16 -12 80 -3 103 7 19 30 21 37 4 3 -10 8
-10 17 -2 16 16 9 44 -16 61 -19 12 -24 11 -45 -6z"/>
<path d="M1630 4374 c0 -88 3 -115 13 -112 6 3 15 29 18 59 l6 54 2 -45 c1
-45 15 -80 26 -68 3 3 10 34 14 69 l8 64 2 -67 c1 -53 4 -68 16 -68 12 0 15
20 15 116 0 114 0 115 -22 112 -19 -2 -24 -11 -28 -50 -7 -60 -20 -74 -20 -20
0 53 -8 72 -31 72 -18 0 -19 -9 -19 -116z"/>
<path d="M1770 4375 c0 -96 3 -115 15 -115 10 0 15 10 15 33 0 17 5 39 10 47
7 11 11 4 16 -29 6 -40 26 -62 41 -47 4 4 -1 37 -11 74 -16 61 -16 70 -2 104
20 47 20 48 -3 48 -12 0 -24 -13 -34 -37 l-15 -38 -1 38 c-1 26 -6 37 -16 37
-12 0 -15 -19 -15 -115z"/>
<path d="M1940 4375 c0 -96 3 -115 15 -115 11 0 15 13 16 53 l1 52 17 -50 c11
-30 25 -51 35 -53 15 -3 16 8 14 109 -2 79 -7 114 -15 117 -9 2 -13 -11 -13
-48 0 -61 -13 -58 -29 5 -7 28 -17 45 -26 45 -12 0 -15 -20 -15 -115z"/>
<path d="M2060 4374 l0 -115 43 3 c34 2 42 7 42 23 0 14 -8 21 -27 23 -22 3
-28 9 -28 28 0 19 5 24 25 24 33 0 35 37 3 42 -34 5 -37 38 -4 38 21 0 26 5
26 25 0 23 -4 25 -40 25 l-40 0 0 -116z"/>
<path d="M2287 4483 c-3 -5 -4 -55 -2 -113 l2 -105 41 -3 c39 -3 42 -1 42 22
0 21 -5 26 -25 26 -34 0 -37 47 -3 52 34 5 37 38 4 38 -34 0 -37 37 -3 42 14
2 23 11 25 26 3 20 -1 22 -37 22 -22 0 -42 -3 -44 -7z"/>
<path d="M2390 4375 c0 -96 3 -115 15 -115 11 0 15 12 15 45 0 57 14 58 26 3
6 -28 15 -44 26 -46 15 -3 17 2 11 30 -3 18 -10 41 -15 52 -7 12 -6 22 1 29
12 12 15 75 5 101 -4 11 -19 16 -45 16 l-39 0 0 -115z m60 45 c0 -11 -7 -20
-15 -20 -8 0 -15 9 -15 20 0 11 7 20 15 20 8 0 15 -9 15 -20z"/>
<path d="M2507 4483 c-8 -12 -1 -212 7 -220 3 -4 11 -2 17 4 14 14 7 215 -8
220 -6 2 -13 0 -16 -4z"/>
<path d="M2600 4480 c-10 -6 -11 -10 -2 -10 17 0 17 -191 0 -208 -9 -9 -3 -12
31 -12 39 0 41 1 27 16 -13 12 -16 38 -16 120 0 107 -4 117 -40 94z"/>
<path d="M2720 4375 c0 -96 3 -115 15 -115 11 0 15 11 15 40 0 34 4 42 24 50
29 11 43 71 27 113 -9 22 -17 27 -46 27 l-35 0 0 -115z m51 52 c-1 -4 -1 -14
-1 -22 0 -8 -4 -15 -10 -15 -5 0 -10 12 -10 26 0 14 5 24 11 22 6 -2 10 -7 10
-11z"/>
<path d="M2836 4463 c-3 -16 -10 -57 -16 -93 -6 -36 -13 -75 -15 -87 -7 -30
25 -32 32 -3 3 11 12 20 20 20 8 0 17 -9 20 -20 3 -11 12 -20 20 -20 12 0 14
8 9 38 -3 20 -11 72 -18 115 -10 61 -16 77 -29 77 -11 0 -19 -10 -23 -27z m33
-100 c1 -7 -3 -13 -9 -13 -5 0 -10 15 -9 33 0 27 2 29 9 12 5 -11 9 -26 9 -32z"/>
<path d="M2572 3991 c-16 -22 -31 -31 -52 -31 -23 0 -28 -4 -23 -16 5 -14 -2
-16 -58 -10 -35 4 -76 12 -91 18 -49 19 -54 1 -5 -21 27 -13 47 -29 47 -38 0
-13 8 -15 46 -9 26 3 92 7 148 8 57 1 77 3 46 5 -83 5 -88 9 -56 42 19 20 27
37 24 56 l-3 27 -23 -31z"/>
<path d="M1642 2124 c-19 -41 -31 -82 -28 -90 11 -27 33 -13 50 31 25 65 34
63 23 -6 -8 -49 -7 -63 4 -70 10 -7 25 3 57 38 47 53 52 51 21 -8 -21 -43 -20
-69 4 -69 11 0 53 78 84 156 2 6 -10 17 -28 24 -31 13 -33 13 -66 -26 l-34
-39 6 52 c6 50 6 52 -24 67 -16 9 -31 16 -33 16 -2 0 -18 -34 -36 -76z"/>
<path d="M3058 3683 c-9 -32 -15 -59 -13 -61 5 -5 37 97 33 108 -2 5 -11 -16
-20 -47z"/>
<path d="M3032 3338 c-30 -48 -27 -74 13 -138 l34 -55 -6 95 c-3 52 -9 104
-13 114 -6 17 -9 15 -28 -16z"/>
<path d="M2940 3239 c-27 -25 -46 -51 -47 -65 -1 -14 2 -22 6 -20 8 5 94 126
89 126 -2 -1 -23 -19 -48 -41z"/>
<path d="M2959 3208 c-13 -18 -34 -48 -47 -65 l-24 -33 96 0 96 0 -46 63 c-25
34 -47 63 -49 65 -1 2 -13 -12 -26 -30z"/>
<path d="M2900 3082 c0 -5 18 -37 41 -72 l40 -63 45 66 c24 37 44 69 44 72 0
3 -38 5 -85 5 -47 0 -85 -4 -85 -8z"/>
<path d="M2880 3050 c0 -22 -21 -206 -25 -227 -3 -13 -2 -23 3 -23 9 0 102
130 102 143 0 8 -71 117 -76 117 -2 0 -4 -5 -4 -10z"/>
<path d="M3036 2999 l-38 -59 53 -74 c30 -41 55 -73 57 -72 3 4 -26 257 -30
262 -2 1 -21 -24 -42 -57z"/>
<path d="M3266 1062 c-21 -53 -71 -186 -111 -294 -50 -136 -80 -204 -96 -218
-44 -37 -136 -90 -168 -96 -31 -7 -32 -6 -25 22 4 16 11 39 15 52 11 30 12 28
-7 46 -8 9 -26 16 -38 16 -13 0 -29 7 -36 15 -7 9 -29 15 -51 15 -32 0 -46 -7
-79 -41 -41 -42 -84 -137 -74 -163 16 -43 62 -24 182 71 l32 26 0 -37 c0 -40
25 -72 64 -82 28 -7 89 22 156 73 l45 34 7 -26 c3 -14 12 -33 19 -41 30 -37
148 2 233 77 73 64 54 82 -31 29 -49 -32 -143 -70 -169 -70 -13 0 -15 6 -9 28
10 43 107 312 169 470 31 79 56 152 56 162 0 16 -18 30 -38 30 -4 0 -24 -44
-46 -98z m-512 -514 c-54 -41 -59 -42 -30 -10 17 18 36 32 44 32 8 0 2 -9 -14
-22z"/>
<path d="M1280 1074 c-118 -35 -231 -93 -326 -167 -98 -78 -146 -147 -146
-211 0 -113 75 -167 315 -227 l128 -32 -65 -61 c-68 -64 -85 -100 -66 -136 10
-19 18 -21 47 -17 54 9 154 60 196 99 36 35 50 79 27 93 -25 15 -3 36 83 78
97 48 174 69 165 45 -37 -97 -42 -116 -29 -132 20 -24 35 -19 55 19 23 43 32
44 40 4 7 -36 57 -89 84 -89 11 0 26 7 33 16 11 14 9 20 -18 43 -27 23 -53 59
-53 75 0 2 16 14 34 26 39 24 76 77 76 108 0 43 -61 51 -102 14 -10 -8 -18
-11 -18 -5 0 11 58 145 124 287 25 54 46 105 46 112 0 21 -36 36 -49 21 -13
-16 -62 -122 -141 -305 l-58 -133 -63 -3 c-68 -4 -152 -36 -243 -94 -36 -23
-56 -30 -75 -26 -134 30 -313 78 -346 93 -54 24 -77 53 -77 94 0 47 23 87 84
148 127 124 327 220 493 236 50 4 63 2 77 -13 33 -38 27 -95 -17 -168 -40 -67
-43 -81 -15 -96 17 -9 24 -4 57 46 31 47 38 66 41 118 8 148 -99 198 -298 140z
m70 -673 c0 -20 -135 -110 -146 -98 -7 6 118 106 134 107 6 0 12 -4 12 -9z"/>
<path d="M2358 618 c-9 -32 -25 -50 -73 -86 -71 -52 -127 -82 -154 -82 -19 0
-19 2 -4 55 17 61 9 85 -31 85 -11 0 -30 7 -40 15 -53 40 -134 -3 -182 -96
-28 -56 -31 -91 -9 -109 21 -17 50 -3 132 62 l63 50 0 -32 c0 -22 9 -41 30
-62 39 -39 72 -34 154 22 32 23 60 39 62 38 1 -2 -22 -75 -52 -163 -39 -112
-53 -167 -49 -187 8 -36 19 -35 63 3 52 46 163 96 242 109 88 15 140 7 465
-70 485 -115 640 -124 994 -55 135 27 410 101 425 116 23 21 -9 19 -104 -5
-164 -44 -345 -67 -575 -73 -252 -7 -364 3 -640 57 -417 82 -582 81 -741 -4
-71 -37 -70 -41 -8 89 56 119 67 133 88 116 57 -48 196 77 196 176 0 42 -26
73 -60 73 -29 0 -84 -39 -124 -88 -24 -30 -29 -24 -15 17 9 27 8 35 -6 51 -26
28 -33 25 -47 -22z m202 -26 c0 -20 -64 -103 -94 -122 -67 -41 -62 -20 15 64
57 61 79 78 79 58z m-550 -43 c-48 -38 -67 -43 -36 -10 17 17 37 31 45 31 12
0 9 -6 -9 -21z"/>
<path d="M3030 330 c0 -64 3 -80 15 -80 9 0 15 9 15 25 0 21 5 25 31 25 46 0
69 16 69 50 0 42 -23 60 -81 60 l-49 0 0 -80z m98 48 c29 -29 8 -58 -44 -58
-21 0 -24 5 -24 35 0 32 3 35 28 35 15 0 33 -5 40 -12z"/>
<path d="M3210 330 c0 -64 3 -80 15 -80 9 0 15 9 15 25 0 35 38 33 66 -2 12
-16 26 -25 30 -21 4 5 -1 17 -12 29 -17 19 -18 21 -1 30 21 13 22 62 1 83 -10
10 -33 16 -65 16 l-49 0 0 -80z m98 48 c29 -29 8 -58 -44 -58 -21 0 -24 5 -24
35 0 32 3 35 28 35 15 0 33 -5 40 -12z"/>
<path d="M3400 330 l0 -80 55 0 c30 0 55 5 55 10 0 6 -20 10 -45 10 -41 0 -45
2 -45 25 0 23 4 25 40 25 22 0 40 5 40 10 0 6 -18 10 -40 10 -36 0 -40 3 -40
25 0 23 4 25 45 25 25 0 45 5 45 10 0 6 -25 10 -55 10 l-55 0 0 -80z"/>
<path d="M3570 396 c-24 -29 -8 -60 38 -75 31 -9 42 -18 40 -30 -3 -12 -14
-16 -46 -15 -42 1 -55 -9 -26 -20 28 -11 71 -6 84 8 24 29 8 60 -38 75 -54 17
-55 45 -2 48 54 2 56 3 40 13 -23 15 -76 12 -90 -4z"/>
<path d="M3720 330 l0 -80 60 0 c33 0 60 4 60 10 0 6 -20 10 -45 10 -41 0 -45
2 -45 25 0 23 4 25 40 25 22 0 40 5 40 10 0 6 -18 10 -40 10 -36 0 -40 3 -40
25 0 23 4 25 45 25 25 0 45 5 45 10 0 6 -27 10 -60 10 l-60 0 0 -80z"/>
<path d="M3890 330 c0 -63 3 -80 15 -80 10 0 15 15 17 55 l3 55 44 -55 c24
-30 48 -55 52 -55 5 0 9 36 9 80 0 91 -17 109 -22 23 l-3 -57 -45 57 c-25 31
-51 56 -57 57 -9 0 -13 -22 -13 -80z"/>
<path d="M4100 396 c-24 -29 -8 -60 38 -75 31 -9 42 -18 40 -30 -3 -12 -14
-16 -46 -15 -42 1 -55 -9 -26 -20 28 -11 71 -6 84 8 24 29 8 60 -38 75 -54 17
-55 45 -2 48 54 2 56 3 40 13 -23 15 -76 12 -90 -4z"/>
<path d="M4250 330 c0 -64 3 -80 15 -80 12 0 15 16 15 80 0 64 -3 80 -15 80
-12 0 -15 -16 -15 -80z"/>
</g>
</svg>
